<?xml version="1.0" encoding="iso-8859-1"?>
<!-- Uploaded to: SVG Repo, www.svgrepo.com, Generator: SVG Repo Mixer Tools -->
<svg version="1.1" id="Layer_1" xmlns="http://www.w3.org/2000/svg" xmlns:xlink="http://www.w3.org/1999/xlink" 
	 viewBox="0 0 512 512" xml:space="preserve">
<polygon style="fill:#891C00;" points="462.978,456.095 354.515,456.095 405.884,282.122 462.978,282.122 "/>
<g>
	<path style="fill:#FF5023;" d="M392.785,268.016c0,0-128.426-40.236-128.426-201.669h231.596v202.192L392.785,268.016z"/>
	<path style="fill:#FF5023;" d="M119.214,268.016c0,0,32.107-10.059,64.213-40.298c0,0,30.869-34.345,38.518-50.354
		c13.825-28.932,25.695-64.654,25.695-111.017H40.225v201.668H119.214z"/>
</g>
<g>
	<path style="fill:#AB2300;" d="M40.22,233.536c-1.689,0-3.39-0.543-4.823-1.665c-3.41-2.667-4.01-7.592-1.344-11.001
		C82.107,159.443,72.767,68.119,72.667,67.204c-0.47-4.301,2.634-8.17,6.934-8.642c4.293-0.479,8.17,2.627,8.644,6.927
		c0.111,1.001,2.667,24.9-1.116,57.155c-3.514,29.955-13.432,72.988-40.732,107.885C44.852,232.502,42.548,233.536,40.22,233.536z"
		/>
	<path style="fill:#AB2300;" d="M40.232,251.822c-2.856,0-5.609-1.567-6.992-4.287c-1.96-3.859-0.423-8.577,3.436-10.537
		c36.967-18.789,60.604-52.9,70.252-101.385c7.306-36.718,3.416-67.95,3.375-68.261c-0.554-4.292,2.477-8.221,6.77-8.775
		c4.296-0.552,8.221,2.477,8.775,6.77c0.177,1.375,4.254,34.117-3.548,73.326c-10.483,52.686-37.636,91.518-78.521,112.299
		C42.638,251.548,41.426,251.822,40.232,251.822z"/>
	<path style="fill:#AB2300;" d="M40.218,268.539c-3.569,0-6.795-2.454-7.63-6.08c-0.97-4.213,1.655-8.415,5.865-9.392
		c0.486-0.116,28.516-7.014,56.071-33.153c37.119-35.212,55.941-86.879,55.941-153.567c0-4.328,3.509-7.837,7.837-7.837
		c4.328,0,7.837,3.509,7.837,7.837c0,39.192-6.418,74.169-19.074,103.961c-10.222,24.063-24.501,44.796-42.44,61.624
		c-30.71,28.807-61.353,36.109-62.643,36.405C41.392,268.474,40.8,268.539,40.218,268.539z"/>
	<path style="fill:#AB2300;" d="M40.217,275.855c-3.66,0-6.932-2.577-7.677-6.303c-0.848-4.244,1.905-8.373,6.149-9.22
		c0.655-0.131,1.142-0.158,2.209-0.217c35.631-1.971,151.884-21.766,151.884-193.767c0-4.328,3.509-7.837,7.837-7.837
		c4.328,0,7.837,3.509,7.837,7.837c0,45.386-7.969,84.48-23.686,116.198c-12.914,26.06-31.071,47.273-53.969,63.048
		c-34.667,23.884-70.664,29.155-89.037,30.171c-0.261,0.015-0.468,0.025-0.619,0.034C40.835,275.836,40.524,275.855,40.217,275.855z
		 M41.76,275.702c-0.176,0.036-0.352,0.065-0.528,0.087C41.48,275.76,41.656,275.722,41.76,275.702z"/>
	<path style="fill:#AB2300;" d="M471.78,233.536c-2.328,0-4.632-1.032-6.177-3.008c-27.3-34.896-37.218-77.93-40.731-107.885
		c-3.784-32.255-1.228-56.154-1.117-57.155c0.476-4.301,4.348-7.4,8.65-6.929c4.301,0.475,7.402,4.345,6.93,8.644l0,0
		c-0.1,0.915-9.44,92.239,38.614,153.666c2.667,3.408,2.066,8.334-1.344,11.001C475.17,232.991,473.468,233.536,471.78,233.536z"/>
	<path style="fill:#AB2300;" d="M471.768,251.822c-1.195,0-2.407-0.274-3.545-0.852c-40.886-20.781-68.037-59.614-78.521-112.299
		c-7.802-39.209-3.725-71.951-3.548-73.326c0.554-4.291,4.487-7.322,8.775-6.77c4.29,0.554,7.321,4.479,6.77,8.77l0,0
		c-0.041,0.316-3.934,31.936,3.461,68.697c9.706,48.26,33.313,82.226,70.165,100.957c3.858,1.961,5.396,6.679,3.435,10.537
		C477.378,250.255,474.625,251.822,471.768,251.822z"/>
	<path style="fill:#AB2300;" d="M471.78,268.539c-0.582,0-1.171-0.066-1.763-0.201c-1.289-0.297-31.934-7.599-62.643-36.405
		c-17.939-16.827-32.217-37.561-42.44-61.624c-12.656-29.792-19.074-64.769-19.074-103.961c0-4.328,3.508-7.837,7.837-7.837
		s7.837,3.509,7.837,7.837c0,66.687,18.822,118.356,55.941,153.567c27.658,26.236,55.794,33.088,56.076,33.154
		c4.205,0.99,6.825,5.199,5.847,9.407C478.556,266.092,475.341,268.539,471.78,268.539z"/>
	<path style="fill:#AB2300;" d="M471.783,275.855c-0.307,0-0.618-0.019-0.93-0.055c-0.15-0.009-0.357-0.021-0.619-0.034
		c-18.372-1.016-54.369-6.287-89.037-30.171c-22.897-15.776-41.055-36.988-53.968-63.048
		c-15.717-31.718-23.687-70.813-23.687-116.198c0-4.328,3.508-7.837,7.837-7.837s7.837,3.509,7.837,7.837
		c0,172.001,116.254,191.797,151.883,193.767c1.067,0.059,1.555,0.086,2.209,0.217c4.245,0.847,6.998,4.976,6.15,9.22
		C478.716,273.277,475.443,275.855,471.783,275.855z M470.24,275.702c0.104,0.022,0.28,0.06,0.527,0.087
		C470.591,275.765,470.415,275.736,470.24,275.702z"/>
	<polygon style="fill:#AB2300;" points="153.675,463.932 45.318,463.932 45.318,296.078 114.043,296.078 	"/>
</g>
<polygon style="fill:#891C00;" points="48.068,26.122 0,26.122 0,66.348 512,66.348 512,26.122 135.84,26.122 "/>
<g>
	<polygon style="fill:#FF5023;" points="119.214,296.229 172.931,455.053 139.098,455.053 85.382,296.229 	"/>
	<polygon style="fill:#FF5023;" points="52.4,296.229 106.117,455.053 40.225,455.053 40.225,296.229 	"/>
</g>
<rect x="392.788" y="268.016" style="fill:#FFCD00;" width="78.984" height="28.212"/>
<g>
	<polygon style="fill:#FF5023;" points="426.618,296.229 372.902,455.053 339.069,455.053 392.785,296.229 	"/>
	<polygon style="fill:#FF5023;" points="459.6,296.229 405.884,455.053 471.775,455.053 471.775,296.229 	"/>
</g>
<rect y="455.053" style="fill:#FFE477;" width="512" height="30.824"/>
<g>
	<rect y="66.351" style="fill:#891C00;" width="40.225" height="388.702"/>
	<rect x="471.771" y="66.351" style="fill:#891C00;" width="40.225" height="388.702"/>
</g>
<rect x="40.225" y="268.016" style="fill:#FFCD00;" width="78.984" height="28.212"/>
<g>
	<rect x="40.225" y="282.122" style="fill:#CCA400;" width="78.984" height="14.11"/>
	<rect x="392.788" y="282.122" style="fill:#CCA400;" width="78.984" height="14.11"/>
</g>
</svg>